<?xml version="1.0" encoding="UTF-8"?>
<svg xmlns="http://www.w3.org/2000/svg" version="1.1" viewBox="0 0 231.6 86.2">
  <defs>
    <style>
      .cls-1 {
        fill: #b99b5f;
      }

      .cls-2 {
        fill: #04436f;
      }
    </style>
  </defs>
  <!-- Generator: Adobe Illustrator 28.6.0, SVG Export Plug-In . SVG Version: 1.2.0 Build 709)  -->
  <g>
    <g id="Layer_1">
      <g>
        <path class="cls-2" d="M190.4,15.4c4.9-2.6,10.5-3.8,17.1-3.8s7.7.4,11.2,1.2c3.5.8,8.4,2.5,12.9,4.5V5c-7.6-2.8-15.7-4.2-24.2-4.2s-16.3,1.8-22.9,5.3c-6.6,3.5-11.8,8.5-15.4,14.8-3.6,6.4-5.4,13.8-5.4,22.1s1.8,16,5.4,22.6c3.6,6.5,8.7,11.6,15.3,15.2,6.6,3.6,14.2,5.4,22.8,5.4s10.2-.5,14.5-1.5c3.1-.7,6.4-1.8,9.9-3.3v-12.5c-4.4,2.4-8.5,4.1-12.2,5.1-3.7,1-7.9,1.4-12.4,1.4s-11.6-1.3-16.4-3.8c-4.8-2.5-8.5-6.2-11.2-11-2.7-4.9-4-10.7-4-17.6s1.3-12.1,3.8-16.7c2.6-4.7,6.3-8.3,11.1-10.9Z"/>
        <g>
          <g>
            <path class="cls-2" d="M58.3,13c-2.6-4.2-6.1-7.4-10.7-9.6-4.6-2.3-9.9-3.4-15.9-3.4H0v84.4h11.6v-29.4h20.1c6,0,11.3-1.1,16-3.4,4.6-2.3,8.2-5.4,10.7-9.6,2.5-4.1,3.8-9,3.8-14.5s-1.3-10.3-3.9-14.5ZM33.7,44.7H11.6V10.3h22.2c9.5,0,17.2,7.7,17.2,17.2s-7.7,17.2-17.2,17.2Z"/>
            <path class="cls-2" d="M136.6,0v84.4h11.6V0h-11.6ZM75.5,0v84.4h11.6V0h-11.6Z"/>
          </g>
          <path class="cls-1" d="M158.3,49.4l-46.2-18.8c-.2,0-.4,0-.6,0l-46.2,18.8c-.4.2-.6.6-.5,1.1l1.8,5c.2.4.6.7,1.1.5l43.8-13.8c.2,0,.4,0,.6,0l43.8,13.8c.4.2.9,0,1.1-.5l1.8-5c.2-.4,0-.9-.5-1.1Z"/>
        </g>
      </g>
    </g>
  </g>
</svg>